<mxfile host="Electron" agent="Mozilla/5.0 (Windows NT 10.0; Win64; x64) AppleWebKit/537.36 (KHTML, like Gecko) draw.io/28.0.6 Chrome/138.0.7204.100 Electron/37.2.3 Safari/537.36" version="28.0.6">
  <diagram name="第 1 页" id="EWJQIrNWfICb7iIzTn4a">
    <mxGraphModel dx="1097" dy="667" grid="0" gridSize="10" guides="1" tooltips="1" connect="1" arrows="1" fold="1" page="1" pageScale="1" pageWidth="827" pageHeight="1169" math="0" shadow="0">
      <root>
        <mxCell id="0" />
        <mxCell id="1" parent="0" />
        <mxCell id="DUwnxsTRiNRPZ4t18Pfu-28" value="Q" style="text;html=1;align=center;verticalAlign=middle;resizable=0;points=[];autosize=1;strokeColor=none;fillColor=none;" vertex="1" parent="1">
          <mxGeometry x="3" y="421" width="27" height="26" as="geometry" />
        </mxCell>
        <mxCell id="DUwnxsTRiNRPZ4t18Pfu-29" value="K" style="text;html=1;align=center;verticalAlign=middle;resizable=0;points=[];autosize=1;strokeColor=none;fillColor=none;" vertex="1" parent="1">
          <mxGeometry x="3" y="316" width="26" height="26" as="geometry" />
        </mxCell>
        <mxCell id="DUwnxsTRiNRPZ4t18Pfu-30" value="V" style="text;html=1;align=center;verticalAlign=middle;resizable=0;points=[];autosize=1;strokeColor=none;fillColor=none;" vertex="1" parent="1">
          <mxGeometry x="3" y="194" width="26" height="26" as="geometry" />
        </mxCell>
        <mxCell id="DUwnxsTRiNRPZ4t18Pfu-1" value="" style="rounded=1;whiteSpace=wrap;html=1;container=0;fillColor=#dae8fc;strokeColor=#6c8ebf;" vertex="1" parent="1">
          <mxGeometry x="42" y="179" width="20" height="60" as="geometry" />
        </mxCell>
        <mxCell id="DUwnxsTRiNRPZ4t18Pfu-2" value="" style="rounded=1;whiteSpace=wrap;html=1;container=0;fillColor=#dae8fc;strokeColor=#6c8ebf;" vertex="1" parent="1">
          <mxGeometry x="102" y="179" width="20" height="60" as="geometry" />
        </mxCell>
        <mxCell id="DUwnxsTRiNRPZ4t18Pfu-3" value="" style="rounded=1;whiteSpace=wrap;html=1;container=0;fillColor=#dae8fc;strokeColor=#6c8ebf;" vertex="1" parent="1">
          <mxGeometry x="72" y="179" width="20" height="60" as="geometry" />
        </mxCell>
        <mxCell id="DUwnxsTRiNRPZ4t18Pfu-4" value="" style="rounded=1;whiteSpace=wrap;html=1;container=0;fillColor=#dae8fc;strokeColor=#6c8ebf;" vertex="1" parent="1">
          <mxGeometry x="161" y="179" width="20" height="60" as="geometry" />
        </mxCell>
        <mxCell id="DUwnxsTRiNRPZ4t18Pfu-5" value="" style="rounded=1;whiteSpace=wrap;html=1;container=0;fillColor=#dae8fc;strokeColor=#6c8ebf;" vertex="1" parent="1">
          <mxGeometry x="221" y="179" width="20" height="60" as="geometry" />
        </mxCell>
        <mxCell id="DUwnxsTRiNRPZ4t18Pfu-6" value="" style="rounded=1;whiteSpace=wrap;html=1;container=0;fillColor=#dae8fc;strokeColor=#6c8ebf;" vertex="1" parent="1">
          <mxGeometry x="251" y="179" width="20" height="60" as="geometry" />
        </mxCell>
        <mxCell id="DUwnxsTRiNRPZ4t18Pfu-7" value="" style="rounded=1;whiteSpace=wrap;html=1;container=0;fillColor=#dae8fc;strokeColor=#6c8ebf;" vertex="1" parent="1">
          <mxGeometry x="132" y="179" width="20" height="60" as="geometry" />
        </mxCell>
        <mxCell id="DUwnxsTRiNRPZ4t18Pfu-8" value="" style="rounded=1;whiteSpace=wrap;html=1;container=0;fillColor=#dae8fc;strokeColor=#6c8ebf;" vertex="1" parent="1">
          <mxGeometry x="191" y="179" width="20" height="60" as="geometry" />
        </mxCell>
        <mxCell id="DUwnxsTRiNRPZ4t18Pfu-9" value="" style="rounded=1;whiteSpace=wrap;html=1;container=0;fillColor=#d5e8d4;strokeColor=#82b366;" vertex="1" parent="1">
          <mxGeometry x="42" y="299" width="20" height="60" as="geometry" />
        </mxCell>
        <mxCell id="DUwnxsTRiNRPZ4t18Pfu-10" value="" style="rounded=1;whiteSpace=wrap;html=1;container=0;fillColor=#d5e8d4;strokeColor=#82b366;" vertex="1" parent="1">
          <mxGeometry x="102" y="299" width="20" height="60" as="geometry" />
        </mxCell>
        <mxCell id="DUwnxsTRiNRPZ4t18Pfu-11" value="" style="rounded=1;whiteSpace=wrap;html=1;container=0;fillColor=#d5e8d4;strokeColor=#82b366;" vertex="1" parent="1">
          <mxGeometry x="72" y="299" width="20" height="60" as="geometry" />
        </mxCell>
        <mxCell id="DUwnxsTRiNRPZ4t18Pfu-12" value="" style="rounded=1;whiteSpace=wrap;html=1;container=0;fillColor=#d5e8d4;strokeColor=#82b366;" vertex="1" parent="1">
          <mxGeometry x="161" y="299" width="20" height="60" as="geometry" />
        </mxCell>
        <mxCell id="DUwnxsTRiNRPZ4t18Pfu-13" value="" style="rounded=1;whiteSpace=wrap;html=1;container=0;fillColor=#d5e8d4;strokeColor=#82b366;" vertex="1" parent="1">
          <mxGeometry x="221" y="299" width="20" height="60" as="geometry" />
        </mxCell>
        <mxCell id="DUwnxsTRiNRPZ4t18Pfu-14" value="" style="rounded=1;whiteSpace=wrap;html=1;container=0;fillColor=#d5e8d4;strokeColor=#82b366;" vertex="1" parent="1">
          <mxGeometry x="251" y="299" width="20" height="60" as="geometry" />
        </mxCell>
        <mxCell id="DUwnxsTRiNRPZ4t18Pfu-15" value="" style="rounded=1;whiteSpace=wrap;html=1;container=0;fillColor=#d5e8d4;strokeColor=#82b366;" vertex="1" parent="1">
          <mxGeometry x="132" y="299" width="20" height="60" as="geometry" />
        </mxCell>
        <mxCell id="DUwnxsTRiNRPZ4t18Pfu-16" value="" style="rounded=1;whiteSpace=wrap;html=1;container=0;fillColor=#d5e8d4;strokeColor=#82b366;" vertex="1" parent="1">
          <mxGeometry x="191" y="299" width="20" height="60" as="geometry" />
        </mxCell>
        <mxCell id="DUwnxsTRiNRPZ4t18Pfu-17" value="" style="rounded=1;whiteSpace=wrap;html=1;container=0;fillColor=#ffe6cc;strokeColor=#d79b00;" vertex="1" parent="1">
          <mxGeometry x="42" y="404" width="20" height="60" as="geometry" />
        </mxCell>
        <mxCell id="DUwnxsTRiNRPZ4t18Pfu-18" value="" style="rounded=1;whiteSpace=wrap;html=1;container=0;fillColor=#ffe6cc;strokeColor=#d79b00;" vertex="1" parent="1">
          <mxGeometry x="102" y="404" width="20" height="60" as="geometry" />
        </mxCell>
        <mxCell id="DUwnxsTRiNRPZ4t18Pfu-19" value="" style="rounded=1;whiteSpace=wrap;html=1;container=0;fillColor=#ffe6cc;strokeColor=#d79b00;" vertex="1" parent="1">
          <mxGeometry x="72" y="404" width="20" height="60" as="geometry" />
        </mxCell>
        <mxCell id="DUwnxsTRiNRPZ4t18Pfu-20" value="" style="rounded=1;whiteSpace=wrap;html=1;container=0;fillColor=#ffe6cc;strokeColor=#d79b00;" vertex="1" parent="1">
          <mxGeometry x="161" y="404" width="20" height="60" as="geometry" />
        </mxCell>
        <mxCell id="DUwnxsTRiNRPZ4t18Pfu-21" value="" style="rounded=1;whiteSpace=wrap;html=1;container=0;fillColor=#ffe6cc;strokeColor=#d79b00;" vertex="1" parent="1">
          <mxGeometry x="221" y="404" width="20" height="60" as="geometry" />
        </mxCell>
        <mxCell id="DUwnxsTRiNRPZ4t18Pfu-22" value="" style="rounded=1;whiteSpace=wrap;html=1;container=0;fillColor=#ffe6cc;strokeColor=#d79b00;" vertex="1" parent="1">
          <mxGeometry x="251" y="404" width="20" height="60" as="geometry" />
        </mxCell>
        <mxCell id="DUwnxsTRiNRPZ4t18Pfu-23" value="" style="rounded=1;whiteSpace=wrap;html=1;container=0;fillColor=#ffe6cc;strokeColor=#d79b00;" vertex="1" parent="1">
          <mxGeometry x="132" y="404" width="20" height="60" as="geometry" />
        </mxCell>
        <mxCell id="DUwnxsTRiNRPZ4t18Pfu-24" value="" style="rounded=1;whiteSpace=wrap;html=1;container=0;fillColor=#ffe6cc;strokeColor=#d79b00;" vertex="1" parent="1">
          <mxGeometry x="191" y="404" width="20" height="60" as="geometry" />
        </mxCell>
        <mxCell id="DUwnxsTRiNRPZ4t18Pfu-44" value="" style="rounded=1;whiteSpace=wrap;html=1;container=0;fillColor=#d5e8d4;strokeColor=#82b366;" vertex="1" parent="1">
          <mxGeometry x="333" y="299" width="20" height="60" as="geometry" />
        </mxCell>
        <mxCell id="DUwnxsTRiNRPZ4t18Pfu-45" value="" style="rounded=1;whiteSpace=wrap;html=1;container=0;fillColor=#d5e8d4;strokeColor=#82b366;" vertex="1" parent="1">
          <mxGeometry x="451" y="299" width="20" height="60" as="geometry" />
        </mxCell>
        <mxCell id="DUwnxsTRiNRPZ4t18Pfu-46" value="" style="rounded=1;whiteSpace=wrap;html=1;container=0;fillColor=#d5e8d4;strokeColor=#82b366;" vertex="1" parent="1">
          <mxGeometry x="508" y="299" width="20" height="60" as="geometry" />
        </mxCell>
        <mxCell id="DUwnxsTRiNRPZ4t18Pfu-48" value="" style="rounded=1;whiteSpace=wrap;html=1;container=0;fillColor=#d5e8d4;strokeColor=#82b366;" vertex="1" parent="1">
          <mxGeometry x="395" y="299" width="20" height="60" as="geometry" />
        </mxCell>
        <mxCell id="DUwnxsTRiNRPZ4t18Pfu-50" value="" style="rounded=1;whiteSpace=wrap;html=1;container=0;fillColor=#ffe6cc;strokeColor=#d79b00;" vertex="1" parent="1">
          <mxGeometry x="319" y="404" width="20" height="60" as="geometry" />
        </mxCell>
        <mxCell id="DUwnxsTRiNRPZ4t18Pfu-51" value="" style="rounded=1;whiteSpace=wrap;html=1;container=0;fillColor=#ffe6cc;strokeColor=#d79b00;" vertex="1" parent="1">
          <mxGeometry x="379" y="404" width="20" height="60" as="geometry" />
        </mxCell>
        <mxCell id="DUwnxsTRiNRPZ4t18Pfu-52" value="" style="rounded=1;whiteSpace=wrap;html=1;container=0;fillColor=#ffe6cc;strokeColor=#d79b00;" vertex="1" parent="1">
          <mxGeometry x="349" y="404" width="20" height="60" as="geometry" />
        </mxCell>
        <mxCell id="DUwnxsTRiNRPZ4t18Pfu-53" value="" style="rounded=1;whiteSpace=wrap;html=1;container=0;fillColor=#ffe6cc;strokeColor=#d79b00;" vertex="1" parent="1">
          <mxGeometry x="438" y="404" width="20" height="60" as="geometry" />
        </mxCell>
        <mxCell id="DUwnxsTRiNRPZ4t18Pfu-54" value="" style="rounded=1;whiteSpace=wrap;html=1;container=0;fillColor=#ffe6cc;strokeColor=#d79b00;" vertex="1" parent="1">
          <mxGeometry x="498" y="404" width="20" height="60" as="geometry" />
        </mxCell>
        <mxCell id="DUwnxsTRiNRPZ4t18Pfu-55" value="" style="rounded=1;whiteSpace=wrap;html=1;container=0;fillColor=#ffe6cc;strokeColor=#d79b00;" vertex="1" parent="1">
          <mxGeometry x="528" y="404" width="20" height="60" as="geometry" />
        </mxCell>
        <mxCell id="DUwnxsTRiNRPZ4t18Pfu-56" value="" style="rounded=1;whiteSpace=wrap;html=1;container=0;fillColor=#ffe6cc;strokeColor=#d79b00;" vertex="1" parent="1">
          <mxGeometry x="409" y="404" width="20" height="60" as="geometry" />
        </mxCell>
        <mxCell id="DUwnxsTRiNRPZ4t18Pfu-57" value="" style="rounded=1;whiteSpace=wrap;html=1;container=0;fillColor=#ffe6cc;strokeColor=#d79b00;" vertex="1" parent="1">
          <mxGeometry x="468" y="404" width="20" height="60" as="geometry" />
        </mxCell>
        <mxCell id="DUwnxsTRiNRPZ4t18Pfu-66" value="" style="rounded=1;whiteSpace=wrap;html=1;container=0;fillColor=#dae8fc;strokeColor=#6c8ebf;" vertex="1" parent="1">
          <mxGeometry x="691" y="179" width="20" height="60" as="geometry" />
        </mxCell>
        <mxCell id="DUwnxsTRiNRPZ4t18Pfu-74" value="" style="rounded=1;whiteSpace=wrap;html=1;container=0;fillColor=#d5e8d4;strokeColor=#82b366;" vertex="1" parent="1">
          <mxGeometry x="691" y="299" width="20" height="60" as="geometry" />
        </mxCell>
        <mxCell id="DUwnxsTRiNRPZ4t18Pfu-77" value="" style="rounded=1;whiteSpace=wrap;html=1;container=0;fillColor=#ffe6cc;strokeColor=#d79b00;" vertex="1" parent="1">
          <mxGeometry x="587" y="400" width="20" height="60" as="geometry" />
        </mxCell>
        <mxCell id="DUwnxsTRiNRPZ4t18Pfu-78" value="" style="rounded=1;whiteSpace=wrap;html=1;container=0;fillColor=#ffe6cc;strokeColor=#d79b00;" vertex="1" parent="1">
          <mxGeometry x="647" y="400" width="20" height="60" as="geometry" />
        </mxCell>
        <mxCell id="DUwnxsTRiNRPZ4t18Pfu-79" value="" style="rounded=1;whiteSpace=wrap;html=1;container=0;fillColor=#ffe6cc;strokeColor=#d79b00;" vertex="1" parent="1">
          <mxGeometry x="617" y="400" width="20" height="60" as="geometry" />
        </mxCell>
        <mxCell id="DUwnxsTRiNRPZ4t18Pfu-80" value="" style="rounded=1;whiteSpace=wrap;html=1;container=0;fillColor=#ffe6cc;strokeColor=#d79b00;" vertex="1" parent="1">
          <mxGeometry x="706" y="400" width="20" height="60" as="geometry" />
        </mxCell>
        <mxCell id="DUwnxsTRiNRPZ4t18Pfu-81" value="" style="rounded=1;whiteSpace=wrap;html=1;container=0;fillColor=#ffe6cc;strokeColor=#d79b00;" vertex="1" parent="1">
          <mxGeometry x="766" y="400" width="20" height="60" as="geometry" />
        </mxCell>
        <mxCell id="DUwnxsTRiNRPZ4t18Pfu-82" value="" style="rounded=1;whiteSpace=wrap;html=1;container=0;fillColor=#ffe6cc;strokeColor=#d79b00;" vertex="1" parent="1">
          <mxGeometry x="796" y="400" width="20" height="60" as="geometry" />
        </mxCell>
        <mxCell id="DUwnxsTRiNRPZ4t18Pfu-83" value="" style="rounded=1;whiteSpace=wrap;html=1;container=0;fillColor=#ffe6cc;strokeColor=#d79b00;" vertex="1" parent="1">
          <mxGeometry x="677" y="400" width="20" height="60" as="geometry" />
        </mxCell>
        <mxCell id="DUwnxsTRiNRPZ4t18Pfu-84" value="" style="rounded=1;whiteSpace=wrap;html=1;container=0;fillColor=#ffe6cc;strokeColor=#d79b00;" vertex="1" parent="1">
          <mxGeometry x="736" y="400" width="20" height="60" as="geometry" />
        </mxCell>
        <mxCell id="DUwnxsTRiNRPZ4t18Pfu-86" value="" style="rounded=1;whiteSpace=wrap;html=1;container=0;fillColor=#dae8fc;strokeColor=#6c8ebf;" vertex="1" parent="1">
          <mxGeometry x="333" y="179" width="20" height="60" as="geometry" />
        </mxCell>
        <mxCell id="DUwnxsTRiNRPZ4t18Pfu-87" value="" style="rounded=1;whiteSpace=wrap;html=1;container=0;fillColor=#dae8fc;strokeColor=#6c8ebf;" vertex="1" parent="1">
          <mxGeometry x="451" y="179" width="20" height="60" as="geometry" />
        </mxCell>
        <mxCell id="DUwnxsTRiNRPZ4t18Pfu-88" value="" style="rounded=1;whiteSpace=wrap;html=1;container=0;fillColor=#dae8fc;strokeColor=#6c8ebf;" vertex="1" parent="1">
          <mxGeometry x="508" y="179" width="20" height="60" as="geometry" />
        </mxCell>
        <mxCell id="DUwnxsTRiNRPZ4t18Pfu-89" value="" style="rounded=1;whiteSpace=wrap;html=1;container=0;fillColor=#dae8fc;strokeColor=#6c8ebf;" vertex="1" parent="1">
          <mxGeometry x="395" y="179" width="20" height="60" as="geometry" />
        </mxCell>
        <mxCell id="DUwnxsTRiNRPZ4t18Pfu-94" value="&lt;font style=&quot;font-size: 20px;&quot;&gt;MHA&lt;/font&gt;" style="text;html=1;align=center;verticalAlign=middle;resizable=0;points=[];autosize=1;strokeColor=none;fillColor=none;" vertex="1" parent="1">
          <mxGeometry x="116" y="484" width="62" height="36" as="geometry" />
        </mxCell>
        <mxCell id="DUwnxsTRiNRPZ4t18Pfu-95" value="&lt;font style=&quot;font-size: 20px;&quot;&gt;GQA&lt;/font&gt;" style="text;html=1;align=center;verticalAlign=middle;resizable=0;points=[];autosize=1;strokeColor=none;fillColor=none;" vertex="1" parent="1">
          <mxGeometry x="403" y="484" width="62" height="36" as="geometry" />
        </mxCell>
        <mxCell id="DUwnxsTRiNRPZ4t18Pfu-96" value="&lt;font style=&quot;font-size: 20px;&quot;&gt;MQA&lt;/font&gt;" style="text;html=1;align=center;verticalAlign=middle;resizable=0;points=[];autosize=1;strokeColor=none;fillColor=none;" vertex="1" parent="1">
          <mxGeometry x="672" y="489" width="64" height="36" as="geometry" />
        </mxCell>
      </root>
    </mxGraphModel>
  </diagram>
</mxfile>
